<svg xmlns="http://www.w3.org/2000/svg" xmlns:svg="http://www.w3.org/2000/svg" xmlns:xlink="http://www.w3.org/1999/xlink" version="1.0" height="460pt" width="950pt" viewBox="295 87 958 466" ><defs><style type="text/css">
            @font-face {
                font-family: 'lt_regular';
                src: url('https://app.creately.com/diagram/assets/fonts/lato/lt-regular-webfont.woff2') format('woff2'),
                    url('https://app.creately.com/diagram/assets/fonts/lato/lt-regular-webfont.woff') format('woff');
                font-weight: normal;
                font-style: normal;
            }
            @font-face {
                font-family: 'noto_regular';
                src: url('https://app.creately.com/diagram/assets/fonts/noto/noto-regular.woff') format('woff'),
                     url('https://app.creately.com/diagram/assets/fonts/noto/noto-regular.woff2') format('woff2');
                font-weight: normal;
                font-style: normal;
            }
        p {
            margin: 0;
        }
        </style></defs><defs><style>
            span{ display: inline-block; }
        </style></defs><g id="ofP3ydgDE5t"><g transform="translate(510 100)"><rect x="0" y="0" width="140" height="30.5" fill="rgb(32,161,179)" stroke="#20a1b3" stroke-width="2" stroke-linecap="round" stroke-linejoin="round" stroke-dasharray="0 0"/><path d="M 70,30.5 L 70,450" fill="rgb(32,161,179)" stroke="#20a1b3" stroke-width="2" stroke-linecap="round" stroke-linejoin="round" stroke-dasharray="3 3"/><rect x="0" y="0" width="140" height="450" fill="rgba(255,255,255,0.01)" stroke="rgba(255,255,255,0.01)" stroke-width="2" stroke-linecap="round" stroke-linejoin="round" stroke-dasharray="3 3"/></g><g transform="translate(538.57, 105) rotate(0, 41.43, 0)" width="82.86" height="20.5"><text text-decoration="none" x="22.93" fill="#ffffff" font-size="11pt" font-family="lt_regular"  y="16">Login&#160;</text><text text-decoration="none" x="19.43" fill="#ffffff" font-size="11pt" font-family="lt_regular"  y="38">Screen</text><text text-decoration="none" x="63.43" fill="#4b4b4b" font-size="10pt" font-family="noto_regular"  y="38"></text></g></g><g id="tHVUcnMyiLS"><g transform="translate(810 100)"><rect x="0" y="0" width="139.99999999999994" height="30.5" fill="rgb(72,110,124)" stroke="#486e7c" stroke-width="2" stroke-linecap="round" stroke-linejoin="round" stroke-dasharray="0 0"/><path d="M 69.99999999999997,30.5 L 69.99999999999997,450" fill="rgb(72,110,124)" stroke="#486e7c" stroke-width="2" stroke-linecap="round" stroke-linejoin="round" stroke-dasharray="3 3"/><rect x="0" y="0" width="139.99999999999994" height="450" fill="rgba(255,255,255,0.01)" stroke="rgba(255,255,255,0.01)" stroke-width="2" stroke-linecap="round" stroke-linejoin="round" stroke-dasharray="3 3"/></g><g transform="translate(836.675, 105) rotate(0, 43.325, 0)" width="86.65" height="20.5"><text text-decoration="none" x="16.825000000000003" fill="#ffffff" font-size="11pt" font-family="lt_regular"  y="16">Validate&#160;</text><text text-decoration="none" x="28.325000000000003" fill="#ffffff" font-size="11pt" font-family="lt_regular"  y="38">User</text><text text-decoration="none" x="58.325" fill="#4b4b4b" font-size="10pt" font-family="noto_regular"  y="38"></text></g></g><g id="TIQR1r6sbJP"><g transform="translate(1150 100)"><rect x="0" y="0" width="100" height="30.5" fill="rgb(45,75,90)" stroke="#2d4b5a" stroke-width="2" stroke-linecap="round" stroke-linejoin="round" stroke-dasharray="0 0"/><path d="M 50,30.5 L 50,450" fill="rgb(45,75,90)" stroke="#2d4b5a" stroke-width="2" stroke-linecap="round" stroke-linejoin="round" stroke-dasharray="3 3"/><rect x="0" y="0" width="100" height="450" fill="rgba(255,255,255,0.01)" stroke="rgba(255,255,255,0.01)" stroke-width="2" stroke-linecap="round" stroke-linejoin="round" stroke-dasharray="3 3"/></g><g transform="translate(1169.725, 105) rotate(0, 30.275, 0)" width="60.55" height="20.5"><text text-decoration="none" x="0.7749999999999986" fill="#ffffff" font-size="11pt" font-family="lt_regular"  y="17">Database</text><text text-decoration="none" x="59.775" fill="#4b4b4b" font-size="10pt" font-family="noto_regular"  y="17"></text></g></g><g id="1a8fgA0iMDh"><g transform="translate(300 90)"><ellipse cx="40" cy="7.5" rx="10" ry="7.5" fill="rgb(233,97,38)" stroke="#e96126" stroke-width="2" stroke-linecap="round" stroke-linejoin="round" stroke-dasharray="0 0"/><path d="M 40,15 L 40,36 L 60,60 M 40,36 L 20,60 M 22,22.5 L 58,22.5" fill="none" stroke="#e96126" stroke-width="2" stroke-linecap="round" stroke-linejoin="round" stroke-dasharray="0 0"/><path d="M 40,90.5 L 40,459.99999999999994" fill="none" stroke="#e96126" stroke-width="2" stroke-linecap="round" stroke-linejoin="round" stroke-dasharray="3 3"/><rect x="0" y="0" width="80" height="459.99999999999994" fill="rgba(255,255,255,0.01)" stroke="rgba(255,255,255,0.01)" stroke-width="2" stroke-linecap="round" stroke-linejoin="round" stroke-dasharray="3 3"/></g><g transform="translate(314.615, 155) rotate(0, 25.385, 0)" width="50.77" height="20.5"><text text-decoration="none" x="0.38500000000000156" fill="#000000" font-size="11pt" font-family="lt_regular"  y="17">Student</text><text text-decoration="none" x="50.385000000000005" fill="#4b4b4b" font-size="10pt" font-family="noto_regular"  y="17"></text></g></g><g id="Zbs4si7Glv0"><g transform="translate(570 150)"><rect x="0" y="0" width="20" height="350" fill="rgb(44,184,185)" stroke="#2cb8b9" stroke-width="2" stroke-linecap="round" stroke-linejoin="round" stroke-dasharray="0 0"/></g></g><g id="OWZL6Jabu58"><g transform="translate(870 190)"><rect x="0" y="0" width="20" height="310" fill="rgb(140,202,204)" stroke="#8ccacc" stroke-width="2" stroke-linecap="round" stroke-linejoin="round" stroke-dasharray="0 0"/></g></g><g id="DX3spRhaKSb"><g transform="translate(1190 160)"><rect x="0" y="0" width="20" height="100" fill="rgb(167,214,208)" stroke="#a7d6d0" stroke-width="2" stroke-linecap="round" stroke-linejoin="round" stroke-dasharray="0 0"/></g></g><g id="rL83EfTbtae"><g transform="translate(1190 270)"><rect x="0" y="0" width="20" height="160" fill="rgb(167,214,208)" stroke="#a7d6d0" stroke-width="2" stroke-linecap="round" stroke-linejoin="round" stroke-dasharray="0 0"/></g></g><g id="A83wVZ4uYwJ"><mask id="3cd5b" x="326" y="186" width="258" height="28" maskUnits="userSpaceOnUse"><rect x="326" y="186" width="258" height="28" fill="white" /><rect x="386.675" y="186.75" width="136.65" height="26.5" fill="black" /></mask><g mask="url(#3cd5b)"><path d="M 340,200 L 570,200" fill="none" stroke="#9A9A9A" stroke-width="2" stroke-linecap="round" stroke-linejoin="round"/><path d="M 570,200 L 561.304347826087,194.25 L 561.304347826087,205.75 Z" fill="rgb(154,154,154)" stroke="#9A9A9A" stroke-width="2" stroke-linecap="round" stroke-linejoin="round"/></g><g transform="translate(389.675, 189.75)" width="130.65" height="20.5"><text text-decoration="none" x="21.325000000000003" fill="#000000" font-size="11pt" font-family="lt_regular"  y="16">click&#160;</text><text text-decoration="none" x="55.325" fill="#000000" font-size="11pt" font-family="lt_regular"  y="16">on&#160;</text><text text-decoration="none" x="76.325" fill="#000000" font-size="11pt" font-family="lt_regular"  y="16">login&#160;</text><text text-decoration="none" x="43.825" fill="#000000" font-size="11pt" font-family="lt_regular"  y="38">button</text><text text-decoration="none" x="86.825" fill="#4b4b4b" font-size="10pt" font-family="noto_regular"  y="38"></text></g></g><g id="nHz02cfbca5"><mask id="aacec" x="576" y="206" width="308" height="38" maskUnits="userSpaceOnUse"><rect x="576" y="206" width="308" height="38" fill="white" /><rect x="629.5550000000001" y="211.75" width="200.89" height="26.5" fill="black" /></mask><g mask="url(#aacec)"><path d="M 590,220 L 720,220 Q 725,220 730,225 Q 735,230 740,230 L 870,230" fill="none" stroke="#9A9A9A" stroke-width="2" stroke-linecap="round" stroke-linejoin="round"/><path d="M 870,230 L 861.304347826087,224.25 L 861.304347826087,235.75 Z" fill="rgb(154,154,154)" stroke="#9A9A9A" stroke-width="2" stroke-linecap="round" stroke-linejoin="round"/></g><g transform="translate(632.5550000000001, 214.75)" width="194.89" height="20.5"><text text-decoration="none" x="0.4449999999999932" fill="#000000" font-size="11pt" font-family="lt_regular"  y="17">ValidateUser(userid,password)</text><text text-decoration="none" x="194.445" fill="#4b4b4b" font-size="10pt" font-family="noto_regular"  y="17"></text></g></g><g id="NNjeyOnGAWX"><mask id="13269" x="876" y="196" width="328" height="38" maskUnits="userSpaceOnUse"><rect x="876" y="196" width="328" height="38" fill="white" /><rect x="976.53" y="191.495" width="126.94" height="47.01" fill="black" /></mask><g mask="url(#13269)"><path d="M 890,220 L 1030,220 Q 1035,220 1040,215 Q 1045,210 1050,210 L 1190,210" fill="none" stroke="#9A9A9A" stroke-width="2" stroke-linecap="round" stroke-linejoin="round"/><path d="M 1190,210 L 1181.304347826087,204.25 L 1181.304347826087,215.75 Z" fill="rgb(154,154,154)" stroke="#9A9A9A" stroke-width="2" stroke-linecap="round" stroke-linejoin="round"/></g><g transform="translate(979.53, 194.495)" width="120.94" height="41.01"><text text-decoration="none" x="18.47" fill="#000000" font-size="11pt" font-family="lt_regular"  y="16">userID:found</text><text text-decoration="none" x="102.47" fill="#000000" font-size="11pt" font-family="lt_regular"  y="16"></text><text text-decoration="none" x="0.46999999999999886" fill="#000000" font-size="11pt" font-family="lt_regular"  y="38">password:matched</text><text text-decoration="none" x="120.47" fill="#4b4b4b" font-size="10pt" font-family="noto_regular"  y="38"></text></g></g><g id="3eHmrgwD4f4"><mask id="ed845" x="876" y="266" width="328" height="28" maskUnits="userSpaceOnUse"><rect x="876" y="266" width="328" height="28" fill="white" /><rect x="985.29" y="266.75" width="109.42" height="26.5" fill="black" /></mask><g mask="url(#ed845)"><path d="M 1190,280 L 890,280" fill="none" stroke="#9A9A9A" stroke-width="2" stroke-linecap="round" stroke-linejoin="round"/><path d="M 890,280 L 898.695652173913,285.75 L 898.695652173913,274.25 Z" fill="rgb(154,154,154)" stroke="#9A9A9A" stroke-width="2" stroke-linecap="round" stroke-linejoin="round"/></g><g transform="translate(988.29, 269.75)" width="103.42" height="20.5"><text text-decoration="none" x="0.21000000000000085" fill="#000000" font-size="11pt" font-family="lt_regular"  y="17">classList(grades)</text><text text-decoration="none" x="103.21000000000001" fill="#4b4b4b" font-size="10pt" font-family="noto_regular"  y="17"></text></g></g><g id="wccc8J4BtaN"><mask id="04a1f" x="876" y="306" width="187" height="68" maskUnits="userSpaceOnUse"><rect x="876" y="306" width="187" height="68" fill="white" /><rect x="941.24" y="316.495" width="215.52" height="47.01" fill="black" /></mask><g mask="url(#04a1f)"><path d="M 890,320 L 1039,320 Q 1049,320 1049,330 L 1049,340 L 1049,350 Q 1049,360 1039,360 L 890,360" fill="none" stroke="#9A9A9A" stroke-width="2" stroke-linecap="round" stroke-linejoin="round"/><path d="M 890,360 L 898.695652173913,365.75 L 898.695652173913,354.25 Z" fill="rgb(154,154,154)" stroke="#9A9A9A" stroke-width="2" stroke-linecap="round" stroke-linejoin="round"/></g><g transform="translate(944.24, 319.495)" width="209.52" height="41.01"><text text-decoration="none" x="0.2600000000000051" fill="#000000" font-size="11pt" font-family="lt_regular"  y="16">ValidateUser(passwordMatched)</text><text text-decoration="none" x="209.26" fill="#000000" font-size="11pt" font-family="lt_regular"  y="16"></text><text text-decoration="none" x="104.76" fill="#4b4b4b" font-size="10pt" font-family="noto_regular"  y="38"></text></g></g><g id="zSLvDQkGomP"><mask id="fef15" x="576" y="306" width="308" height="28" maskUnits="userSpaceOnUse"><rect x="576" y="306" width="308" height="28" fill="white" /><rect x="659.74" y="306.75" width="140.52" height="26.5" fill="black" /></mask><g mask="url(#fef15)"><path d="M 870,320 L 590,320" fill="none" stroke="#9A9A9A" stroke-width="2" stroke-linecap="round" stroke-linejoin="round"/><path d="M 590,320 L 598.695652173913,325.75 L 598.695652173913,314.25 Z" fill="rgb(154,154,154)" stroke="#9A9A9A" stroke-width="2" stroke-linecap="round" stroke-linejoin="round"/></g><g transform="translate(662.74, 309.75)" width="134.52" height="20.5"><text text-decoration="none" x="33.760000000000005" fill="#000000" font-size="11pt" font-family="lt_regular"  y="16">User&#160;</text><text text-decoration="none" x="67.76" fill="#000000" font-size="11pt" font-family="lt_regular"  y="16">login&#160;</text><text text-decoration="none" x="34.760000000000005" fill="#000000" font-size="11pt" font-family="lt_regular"  y="38">successful</text><text text-decoration="none" x="99.76" fill="#4b4b4b" font-size="10pt" font-family="noto_regular"  y="38"></text></g></g><g id="GPxdyPZ34pI"><mask id="db264" x="326" y="306" width="258" height="28" maskUnits="userSpaceOnUse"><rect x="326" y="306" width="258" height="28" fill="white" /><rect x="373.4" y="306.75" width="163.2" height="26.5" fill="black" /></mask><g mask="url(#db264)"><path d="M 570,320 L 340,320" fill="none" stroke="#9A9A9A" stroke-width="2" stroke-linecap="round" stroke-linejoin="round"/><path d="M 340,320 L 348.69565217391306,325.75 L 348.69565217391306,314.25 Z" fill="rgb(154,154,154)" stroke="#9A9A9A" stroke-width="2" stroke-linecap="round" stroke-linejoin="round"/></g><g transform="translate(376.4, 309.75)" width="157.2" height="20.5"><text text-decoration="none" x="0" fill="#000000" font-size="11pt" font-family="lt_regular"  y="17">loginSuccessful:message</text><text text-decoration="none" x="159" fill="#4b4b4b" font-size="10pt" font-family="noto_regular"  y="17"></text></g></g><g id="V8nuTA8b6Mg"><mask id="3b750" x="576" y="366" width="308" height="28" maskUnits="userSpaceOnUse"><rect x="576" y="366" width="308" height="28" fill="white" /><rect x="671.705" y="356.495" width="116.59" height="47.01" fill="black" /></mask><g mask="url(#3b750)"><path d="M 870,380 L 590,380" fill="none" stroke="#9A9A9A" stroke-width="2" stroke-linecap="round" stroke-linejoin="round"/><path d="M 590,380 L 598.695652173913,385.75 L 598.695652173913,374.25 Z" fill="rgb(154,154,154)" stroke="#9A9A9A" stroke-width="2" stroke-linecap="round" stroke-linejoin="round"/></g><g transform="translate(674.705, 359.495)" width="110.59" height="41.01"><text text-decoration="none" x="0" fill="#000000" font-size="11pt" font-family="lt_regular"  y="16">classList:released</text><text text-decoration="none" x="55.295" fill="#000000" font-size="11pt" font-family="lt_regular"  y="37"></text><text text-decoration="none" x="21.295" fill="#000000" font-size="11pt" font-family="lt_regular"  y="59">(readOnly)</text><text text-decoration="none" x="89.295" fill="#4b4b4b" font-size="10pt" font-family="noto_regular"  y="59"></text></g></g><g id="UT6c1Ctm7vl"><mask id="2f464" x="326" y="386" width="258" height="28" maskUnits="userSpaceOnUse"><rect x="326" y="386" width="258" height="28" fill="white" /><rect x="376.17" y="386.75" width="157.66" height="26.5" fill="black" /></mask><g mask="url(#2f464)"><path d="M 570,400 L 340,400" fill="none" stroke="#9A9A9A" stroke-width="2" stroke-linecap="round" stroke-linejoin="round"/><path d="M 340,400 L 348.69565217391306,405.75 L 348.69565217391306,394.25 Z" fill="rgb(154,154,154)" stroke="#9A9A9A" stroke-width="2" stroke-linecap="round" stroke-linejoin="round"/></g><g transform="translate(379.17, 389.75)" width="151.66" height="20.5"><text text-decoration="none" x="0" fill="#000000" font-size="11pt" font-family="lt_regular"  y="17">display:classList(grades)</text><text text-decoration="none" x="152" fill="#4b4b4b" font-size="10pt" font-family="noto_regular"  y="17"></text></g></g></svg>